# xmcd
#
# Track frame offsets: 
#        150
#        12450
#        25860
#        39810
#        55950
#        70693
#        84330
#        96850
#        107405
#        119793
#        130510
#        143138
#        155470
#
# Disc length: 2239 seconds
#
# Revision: 0
# Processed by: cddbd v1.5.2PL0 Copyright (c) Steve Scherf et al.
# Submitted via: ExactAudioCopy v0.99pb5
#
DISCID=a008bd0d
DTITLE=Reijo Taipale and The Mustangs - Soita kitara kaipaustani
DYEAR=1993
DGENRE=Country
TTITLE0=Soita kitara kaipaustani
TTITLE1=Laulava sydän
TTITLE2=Muuttolintu
TTITLE3=Mustat silmät
TTITLE4=Rakkauden meri
TTITLE5=Tähtien kertomaa
TTITLE6=Mandshurian twist
TTITLE7=Juna on mennyt
TTITLE8=Tuuliko tunteesi vei
TTITLE9=Ken oli hän
TTITLE10=Meren rannalla
TTITLE11=Unohtumaton ilta
TTITLE12=Ei aika mennyt koskaan palaa
EXTD=
EXTT0=
EXTT1=
EXTT2=
EXTT3=
EXTT4=
EXTT5=
EXTT6=
EXTT7=
EXTT8=
EXTT9=
EXTT10=
EXTT11=
EXTT12=
PLAYORDER=
